<svg width="51" height="52" viewBox="0 0 51 52" fill="none" xmlns="http://www.w3.org/2000/svg">
<path d="M34.2958 30.3784L33.073 16.8074L19.4958 17.9598C19.3528 17.953 19.2099 17.977 19.0769 18.0303C18.9439 18.0835 18.8239 18.1647 18.725 18.2684C18.6261 18.3721 18.5507 18.4957 18.5037 18.6311C18.4568 18.7664 18.4395 18.9103 18.453 19.0529C18.4665 19.1955 18.5105 19.3336 18.582 19.4577C18.6535 19.5819 18.7508 19.6892 18.8674 19.7725C18.984 19.8557 19.1171 19.9129 19.2577 19.9403C19.3984 19.9676 19.5432 19.9644 19.6825 19.9309L29.858 19.0833L17.5614 33.7377C17.391 33.9409 17.3082 34.2034 17.3313 34.4676C17.3544 34.7318 17.4815 34.976 17.6847 35.1465C17.8879 35.317 18.1504 35.3998 18.4146 35.3767C18.6788 35.3536 18.923 35.2264 19.0935 35.0233L31.39 20.3688L32.3222 30.5369C32.3463 30.8012 32.4744 31.0451 32.6782 31.2149C32.8821 31.3848 33.1451 31.4667 33.4094 31.4426C33.6737 31.4186 33.9176 31.2905 34.0874 31.0866C34.2573 30.8827 34.3392 30.6197 34.3151 30.3554L34.2958 30.3784Z" fill="#F5F2E1"/>
</svg>
