<svg width="20" height="25" viewBox="0 0 20 25" fill="none" xmlns="http://www.w3.org/2000/svg">
<path d="M19.7103 10.0099L10.0503 0.399902L0.390253 10.0099C0.27628 10.0967 0.182284 10.207 0.114631 10.3332C0.046977 10.4595 0.00724469 10.5988 -0.00187697 10.7418C-0.0109986 10.8848 0.0107039 11.028 0.0617608 11.1619C0.112818 11.2957 0.192037 11.4171 0.294056 11.5176C0.396075 11.6182 0.518511 11.6957 0.653077 11.7448C0.787643 11.794 0.931195 11.8136 1.07402 11.8024C1.21684 11.7913 1.35559 11.7496 1.48089 11.6801C1.60619 11.6107 1.7151 11.5151 1.80025 11.3999L9.05025 4.2099V23.3399C9.05025 23.6051 9.15561 23.8595 9.34315 24.047C9.53068 24.2345 9.78504 24.3399 10.0503 24.3399C10.3155 24.3399 10.5698 24.2345 10.7574 24.047C10.9449 23.8595 11.0503 23.6051 11.0503 23.3399V4.2099L18.3003 11.3999C18.4886 11.5869 18.7434 11.6914 19.0088 11.6905C19.2742 11.6895 19.5283 11.5832 19.7153 11.3949C19.9022 11.2066 20.0067 10.9517 20.0058 10.6864C20.0049 10.421 19.8986 10.1669 19.7103 9.9799V10.0099Z" fill="#FAF7E6"/>
</svg>
