<svg width="44" height="43" viewBox="0 0 44 43" fill="none" xmlns="http://www.w3.org/2000/svg">
<path d="M8.5485 4.99209C7.83738 5.06646 5.76455 5.36393 5.72673 5.39368C5.71916 5.40855 5.97637 5.57959 6.29411 5.78782C7.80712 6.73228 8.8511 7.77342 10.175 9.64746C11.3173 11.2538 11.7031 11.7 12.3462 12.1834C13.0951 12.7337 13.7306 13.0237 14.7821 13.284C15.3268 13.4179 16.9155 13.641 16.9684 13.5889C17.0365 13.522 15.8639 11.8562 15.1377 10.9935L14.4039 10.116L14.8426 10.3911C18.0502 12.4065 19.7448 15.106 20.5997 19.5457L20.8039 20.624L21.4091 20.572C21.742 20.5422 22.0295 20.505 22.0446 20.4902C22.09 20.4455 21.5982 18.1104 21.3713 17.3073C20.9023 15.6861 20.2819 14.2805 19.5179 13.1353L19.1245 12.5403L19.0337 11.5587C18.8597 9.62515 18.3301 8.30886 17.3013 7.21567C16.2876 6.12991 14.8124 5.43086 12.8606 5.09621C12.1116 4.96235 9.46387 4.90285 8.5485 4.99209Z" fill="#7C8F9D"/>
<path d="M31.3938 9.01572C28.2013 9.44705 26.242 10.9121 25.5006 13.4108C25.3115 14.0504 25.1526 15.1064 25.1526 15.7236C25.1526 16.0583 25.1148 16.1326 24.6987 16.6383C23.98 17.4935 23.284 18.557 22.7999 19.5386C22.5578 20.0295 22.3535 20.4608 22.3535 20.4831C22.3535 20.5128 22.6561 20.5352 23.0344 20.5352H23.7152L24.0632 19.8435C25.0013 18.0067 26.6051 16.1698 28.7082 14.5263C29.6765 13.7678 29.6765 13.7678 29.4344 14.0652C28.625 15.0618 27.4978 16.735 27.4978 16.9432C27.4978 17.1068 29.4042 16.7424 30.2212 16.4152C30.8794 16.1475 31.6661 15.6121 32.1427 15.0989C32.3697 14.8535 32.9144 14.1322 33.3607 13.5075C34.7148 11.5963 35.5243 10.7708 36.9844 9.81888C37.3929 9.55116 37.6123 9.36524 37.5517 9.34294C37.4912 9.32063 36.9692 9.23882 36.3867 9.14958C35.1763 8.97854 32.2713 8.89673 31.3938 9.01572Z" fill="#7C8F9D"/>
<path d="M20.5164 21.6954C20.1457 21.7475 19.5859 21.8665 19.2682 21.9483C18.5041 22.1565 17.1348 22.8184 16.5674 23.2646L16.1211 23.6215L19.0488 23.6438C20.6601 23.6513 23.2928 23.6513 24.9041 23.6438L27.8318 23.6215L27.3855 23.2646C26.8105 22.8184 25.4488 22.1565 24.6621 21.9408C23.3306 21.5839 21.8176 21.4946 20.5164 21.6954Z" fill="#7C8F9D"/>
<path d="M3.0178 25.7114C3.21449 28.7679 4.37195 32.0475 6.17243 34.6801C7.6098 36.7846 9.69019 38.7702 11.8841 40.1312C13.5786 41.1872 16.0524 42.1762 18.0042 42.5704C19.5777 42.8902 20.251 42.9571 22.0515 42.9497C23.8671 42.9422 24.6539 42.8604 26.2577 42.5109C29.5485 41.7821 32.9377 39.9452 35.2904 37.6101L35.9334 36.9706H35.5854C34.7003 36.9706 33.8833 36.4574 33.7017 35.7807C33.6185 35.4907 33.6336 35.3419 33.7774 34.6652C34.0043 33.624 34.0346 32.9919 33.9438 30.575C33.8757 28.8571 33.8379 28.4555 33.7093 28.0465C33.4067 27.0946 33.2478 27.0128 31.5381 26.9236C30.1159 26.8567 29.4956 26.7302 28.7239 26.3658C28.1565 26.0981 27.3319 25.3842 27.2336 25.0719C27.1882 24.9306 27.105 24.9231 24.4875 24.9231H21.7867L22.6567 25.3544C24.2151 26.1204 25.2818 26.9756 25.6903 27.8011C25.9248 28.2622 25.9248 29.0728 25.6903 30.0024C25.3953 31.2146 24.8657 32.1293 23.5645 33.6612C22.687 34.7024 22.1877 35.4312 21.9759 35.9815C21.8851 36.2195 21.7262 36.8664 21.6279 37.4168C21.2874 39.3577 20.6671 40.6145 19.835 41.0905C19.1087 41.5069 18.5413 41.4103 17.8907 40.7707C17.1872 40.0791 16.6652 38.8149 16.2642 36.8218C15.6893 33.9438 15.1749 32.8134 14.1082 32.0623C13.208 31.4228 12.9053 31.1625 12.6784 30.8204C12.1715 30.0693 11.9673 29.2067 11.8538 27.2954C11.7706 26.0461 11.6798 25.704 11.2562 25.1834L11.0443 24.9231H7.00459H2.96484L3.0178 25.7114Z" fill="#7C8F9D"/>
<path d="M12.702 25.0487C13.0047 25.7999 13.0652 26.1345 13.1257 27.2946C13.2543 29.6074 13.4434 30.0685 14.5631 30.8345C16.1442 31.9277 16.7796 33.1101 17.4075 36.1294C17.8539 38.2861 18.4137 39.7511 18.8978 40.0188C19.0794 40.1155 19.1097 40.1155 19.2912 39.9444C19.783 39.4982 20.1385 38.591 20.3882 37.1482C20.6832 35.4973 21.0236 34.7759 22.1886 33.3704C24.0648 31.0948 24.4657 30.3511 24.5943 28.9158C24.6322 28.4919 24.617 28.425 24.4052 28.1127C23.7924 27.2128 21.6667 26.1048 18.913 25.2421L18.0052 24.9669L15.3271 24.9372C12.7701 24.9149 12.6567 24.9223 12.702 25.0487Z" fill="#7C8F9D"/>
<path d="M28.9358 25.0711C29.3973 25.4281 30.4035 25.666 31.508 25.666C32.9378 25.6735 33.7094 25.904 34.2692 26.4915C34.9728 27.2277 35.1241 27.9045 35.23 30.723C35.3132 33.0432 35.2829 33.6902 35.0635 34.6942C34.8744 35.5345 34.8744 35.5122 35.1014 35.6163C35.578 35.832 36.622 35.6684 37.1893 35.304C37.9156 34.828 39.4059 32.1062 40.0868 29.9942C40.5634 28.4994 40.9643 26.3577 40.9643 25.2793V24.9224H34.8593C28.7694 24.9224 28.7467 24.9298 28.9358 25.0711Z" fill="#7C8F9D"/>
</svg>
