<svg width="44" height="43" viewBox="0 0 44 43" fill="none" xmlns="http://www.w3.org/2000/svg">
<g clip-path="url(#clip0_25_26)">
<path d="M13.5446 0.713863C13.3935 0.856638 13.3347 1.00781 13.3347 1.25136C13.3347 1.67968 13.6286 1.93164 14.3761 2.15C14.6784 2.23398 14.9304 2.32636 14.9304 2.35156C14.9304 2.37675 14.5021 2.54472 13.9814 2.72109C12.1001 3.38457 9.89132 4.62754 8.12765 6.03008C2.84503 10.2377 -0.0440346 17.0572 0.57745 23.8516C0.770614 25.9764 1.61046 29.2098 2.05557 29.5625C2.29913 29.7557 2.59308 29.7809 2.86182 29.6297C3.32374 29.3861 3.35733 29.109 3.013 28.076C1.4089 23.2721 1.73643 18.191 3.93683 13.6895C4.94464 11.615 5.92725 10.2461 7.61534 8.558C9.28663 6.88672 10.9075 5.75293 12.9987 4.76191C13.847 4.36719 16.0222 3.58613 16.0894 3.65332C16.1062 3.67011 15.8794 4.07324 15.5855 4.55195C15.2915 5.03066 15.0228 5.49257 14.9892 5.57656C14.8884 5.82851 15.0816 6.29043 15.3503 6.4248C15.703 6.60957 15.9046 6.58437 16.1817 6.31562C16.5681 5.96289 18.5417 2.6959 18.5417 2.42715C18.5417 1.94004 18.2982 1.80566 16.1985 1.13379C15.1151 0.78945 14.1241 0.503902 13.9898 0.503902C13.847 0.503902 13.6622 0.587887 13.5446 0.713863Z" fill="#7C8F9D"/>
<path d="M23.7156 1.94807C23.5309 2.09924 23.4805 2.21682 23.4805 2.46877C23.4805 2.98947 23.7156 3.15744 24.757 3.3674C34.9275 5.42502 41.6127 15.3016 39.6979 25.4469C39.6055 25.934 39.5131 26.3875 39.4879 26.4547C39.4627 26.5303 39.2947 26.228 39.1016 25.7408C38.6984 24.7162 38.5305 24.5231 38.0938 24.5231C37.6822 24.5231 37.3547 24.817 37.3547 25.1865C37.3547 25.5897 38.8328 29.2346 39.0848 29.453C39.4795 29.8057 39.6559 29.7385 41.4447 28.4619C42.3602 27.8069 43.1916 27.1854 43.3008 27.0678C43.5443 26.799 43.5359 26.4463 43.2672 26.1272C42.9145 25.7072 42.6037 25.7576 41.7471 26.3791C41.3523 26.6563 41.0164 26.8662 40.9996 26.8494C40.9828 26.8326 41.0332 26.4631 41.1256 26.0264C42.335 20.1055 40.798 13.8403 36.9684 9.10354C34.1969 5.67697 30.3504 3.20783 26.1008 2.12444C25.4793 1.96486 24.7402 1.81369 24.4631 1.7885C24.0012 1.74651 23.9256 1.7633 23.7156 1.94807Z" fill="#7C8F9D"/>
<path d="M19.4651 8.49015C13.4182 9.18722 8.55549 13.7644 7.53088 19.7357C7.34611 20.8359 7.30412 22.8179 7.45529 23.8509C7.69884 25.5642 8.26994 27.2355 9.10978 28.7304C11.0162 32.0898 14.3756 34.5421 18.1885 35.3651C19.2215 35.5835 21.6403 35.6759 22.6649 35.5331C28.6781 34.6933 33.3561 30.1833 34.3639 24.2708C34.6494 22.5911 34.6074 20.9282 34.2463 19.173C33.6752 16.4183 32.0795 13.6972 29.9295 11.8159C27.0236 9.2796 23.2024 8.06183 19.4651 8.49015ZM22.9084 10.2874C24.0842 10.4806 25.0752 10.8081 26.2258 11.3792C27.5611 12.0427 28.5018 12.7398 29.5432 13.8316C31.0969 15.4525 32.1047 17.3505 32.617 19.6097C32.827 20.5251 32.869 22.9439 32.701 23.9349C31.836 28.9235 28.1742 32.6776 23.1604 33.7359C22.1526 33.9458 19.7086 33.9458 18.7092 33.7359C13.8633 32.7028 10.3024 29.1671 9.25256 24.3464C9.0342 23.347 9.0258 20.7519 9.24416 19.7357C9.76486 17.3169 10.8147 15.3685 12.5363 13.6384C15.2994 10.8585 19.0367 9.65753 22.9084 10.2874Z" fill="#7C8F9D"/>
<path d="M19.0875 11.7152C18.34 11.8496 17.433 12.1183 16.8283 12.3871L16.3664 12.5886L16.568 13.0337C16.7947 13.5125 16.7779 13.7056 16.5008 13.9996C16.3832 14.1339 16.232 14.1927 16.0137 14.1927C15.6945 14.1927 15.6777 14.1759 15.199 13.5292L15.0479 13.3361L14.4264 13.8316C13.7629 14.3607 12.8811 15.2677 12.4947 15.8388L12.2596 16.1748L12.6291 16.4015C13.2002 16.7459 13.2926 17.1826 12.8895 17.6109C12.6711 17.8544 12.3436 17.8544 11.9068 17.6361C11.7221 17.5437 11.5625 17.4681 11.5373 17.4681C11.4869 17.4681 11.0166 18.6271 10.8654 19.1478C10.7395 19.5677 10.4791 20.9703 10.4791 21.2222C10.4791 21.2978 10.6303 21.3314 10.941 21.3314C11.3273 21.3314 11.4449 21.365 11.6129 21.5414C11.9068 21.8269 11.89 22.1964 11.5793 22.5156C11.3693 22.7171 11.2686 22.7591 10.899 22.7591H10.4707L10.5295 23.1959C10.6219 23.9937 10.9158 25.1359 11.2098 25.8834C11.3693 26.2949 11.5121 26.6224 11.5289 26.6224C11.5373 26.6224 11.7221 26.5216 11.9404 26.4041C12.5115 26.0849 13.007 26.2529 13.1246 26.7988C13.2002 27.1179 13.0238 27.3951 12.5703 27.6722L12.2344 27.8906L12.6207 28.3861C13.2926 29.2595 14.8043 30.6621 15.0646 30.6537C15.1066 30.6537 15.241 30.4857 15.3586 30.2841C15.7281 29.6794 16.4084 29.6794 16.6604 30.2841C16.7863 30.5781 16.7779 30.6117 16.5764 31.0064C16.4588 31.2416 16.358 31.4347 16.358 31.4515C16.358 31.5103 17.7018 31.9974 18.3064 32.157C18.6424 32.2494 19.1127 32.3501 19.3395 32.3753C19.5746 32.4089 19.8602 32.4509 19.9945 32.4677C20.2129 32.5097 20.2213 32.5013 20.2213 32.1234C20.2213 31.4935 20.4732 31.166 20.9604 31.1576C21.4055 31.1576 21.649 31.4599 21.649 32.0394C21.649 32.5097 21.649 32.5181 21.8842 32.4677C22.0102 32.4509 22.3041 32.4089 22.5309 32.3753C22.766 32.3501 23.2363 32.2494 23.5807 32.157C24.2105 31.9974 25.5123 31.5103 25.5123 31.4347C25.5123 31.4179 25.4367 31.2584 25.3443 31.0736C25.0336 30.4689 25.1932 29.9818 25.7391 29.8474C26.0498 29.7634 26.3521 29.9566 26.5873 30.3849L26.7805 30.7376L27.0912 30.5109C27.7967 29.9902 28.5777 29.2427 29.09 28.6044L29.6359 27.9242L29.4428 27.7814C28.7961 27.3027 28.7877 27.2859 28.7877 26.95C28.7877 26.74 28.8465 26.5636 28.9557 26.4544C29.2244 26.1857 29.4848 26.1689 29.9467 26.4041L30.3666 26.614L30.6354 25.9757C30.9461 25.2283 31.2652 24.0357 31.3492 23.2798L31.408 22.7591H31.0385C30.3918 22.7591 29.9551 22.3644 30.0811 21.8941C30.1734 21.5078 30.4422 21.3314 30.9461 21.3314C31.4668 21.3314 31.4584 21.3566 31.2652 20.2228C31.0889 19.2402 30.501 17.4681 30.3414 17.4681C30.3162 17.4681 30.1482 17.5437 29.9635 17.6361C29.5352 17.8544 29.2664 17.846 29.0061 17.6109C28.6029 17.2498 28.7037 16.7375 29.2496 16.4099C29.4764 16.2755 29.6023 16.158 29.5688 16.0992C29.1992 15.4609 27.6035 13.8316 27.0408 13.4957L26.7889 13.3529L26.5957 13.6636C26.3354 14.0919 26.201 14.1843 25.8398 14.1927C25.2352 14.1927 24.9832 13.5544 25.3611 12.9498C25.5291 12.6726 25.5375 12.6558 25.3863 12.5466C24.958 12.2359 22.6232 11.5892 21.9094 11.5892C21.6574 11.5892 21.649 11.5976 21.649 12.0007C21.649 12.5634 21.3887 12.8826 20.9352 12.8826C20.4816 12.8826 20.2213 12.5634 20.2213 12.0007C20.2213 11.5892 20.2213 11.5892 19.9525 11.5976C19.8014 11.5976 19.415 11.6564 19.0875 11.7152ZM21.4391 14.4027L21.649 14.6042V17.233V19.8617L22.0354 20.0632C22.7492 20.4412 23.1775 21.1718 23.1775 22.0033V22.4904L24.5969 23.305C25.3779 23.7585 26.075 24.2037 26.1422 24.296C26.327 24.5564 26.2934 24.9007 26.075 25.1611C25.7475 25.5474 25.5123 25.4802 23.925 24.5732L22.4973 23.7501L21.943 24.0273C21.4475 24.2709 21.3467 24.2876 20.8344 24.2541C19.5746 24.1617 18.7096 23.263 18.718 22.0453C18.718 21.155 19.1211 20.4496 19.8434 20.0632L20.2213 19.8617V17.275V14.6798L20.4648 14.4363C20.784 14.1255 21.1535 14.1087 21.4391 14.4027Z" fill="#7C8F9D"/>
<path d="M20.607 21.29C20.2627 21.4748 20.1451 21.6596 20.1367 22.0291C20.1367 22.4742 20.4979 22.8438 20.9346 22.8438C21.3629 22.8438 21.7324 22.4742 21.7324 22.0459C21.7324 21.6344 21.6064 21.4244 21.2705 21.2816C20.9178 21.1389 20.9094 21.1389 20.607 21.29Z" fill="#7C8F9D"/>
<path d="M35.8347 33.9544C35.7171 34.0552 35.3392 34.4583 35.0033 34.8447C32.7861 37.3474 29.158 39.531 25.7566 40.396C22.8087 41.1519 19.3822 41.1771 16.5687 40.4716C13.3521 39.6654 10.8662 38.3468 8.21225 36.0288L7.91831 35.7769L8.29624 35.8273C8.5062 35.8525 8.90093 35.9113 9.17807 35.9533C9.89194 36.0624 9.93393 36.054 10.2195 35.8105C10.5554 35.5333 10.5806 35.0378 10.2867 34.7355C10.0767 34.5255 9.95073 34.5003 7.32202 34.1728C5.66753 33.9628 5.49116 33.9796 5.23081 34.3743C5.11323 34.5675 5.11323 34.7439 5.33159 36.7007C5.49956 38.246 5.60034 38.8843 5.70952 39.0607C5.95307 39.4638 6.51577 39.489 6.8769 39.1111C7.03647 38.9431 7.05327 38.8675 7.00288 38.1536C6.96928 37.7253 6.92729 37.255 6.8937 37.1038L6.84331 36.8267L7.38081 37.3222C10.1943 39.8837 13.9484 41.639 18.0132 42.2941C19.2982 42.4956 21.8849 42.5376 23.2623 42.3781C27.1591 41.9245 30.7117 40.4716 33.7771 38.0697C34.6505 37.381 36.8341 35.1638 36.9769 34.8111C37.296 34.072 36.4394 33.4253 35.8347 33.9544Z" fill="#7C8F9D"/>
</g>
<defs>
<clipPath id="clip0_25_26">
<rect width="43" height="43" fill="white" transform="translate(0.486328)"/>
</clipPath>
</defs>
</svg>
