<svg width="44" height="44" viewBox="0 0 44 44" fill="none" xmlns="http://www.w3.org/2000/svg">
<path d="M21.0998 1.81271C20.4615 1.98908 20.2852 2.09826 18.7986 3.20686C16.8082 4.69338 16.867 4.67658 14.2887 4.83615C12.2982 4.96213 11.9287 5.04611 11.1896 5.52482C10.249 6.15471 9.93828 6.7342 9.44277 8.80861C8.97246 10.799 8.87168 11.093 8.50215 11.5885C8.32578 11.8069 7.65391 12.4955 6.99883 13.1002C5.21836 14.7715 5 15.1494 5 16.6024V17.5346L5.90703 19.3738C7.04082 21.675 7.03242 21.6078 6.74688 23.9846C6.6125 25.11 6.55371 25.933 6.5873 26.2522C6.65449 26.9324 7.09121 27.8227 7.60352 28.335C8.05703 28.7969 8.36777 28.9565 10.123 29.7123C12.2143 30.611 12.2059 30.6026 13.684 32.8113C14.2635 33.6932 14.8262 34.4406 15.0109 34.5918C15.5064 34.9781 16.1363 35.2637 16.7494 35.3729C17.4549 35.5072 17.8496 35.4317 19.8904 34.8186C21.948 34.1971 22.0488 34.2055 24.2744 34.8606C25.215 35.1377 26.1809 35.3897 26.416 35.4149C27.2139 35.5156 28.2553 35.1797 28.9943 34.6002C29.1875 34.449 29.7334 33.71 30.3297 32.8113C31.8078 30.6026 31.7994 30.611 33.8906 29.7123C34.5877 29.4184 35.3436 29.074 35.5787 28.9565C36.4689 28.503 37.166 27.5455 37.3844 26.4789C37.4768 26.0254 37.4684 25.7483 37.2752 24.0518C37.1072 22.5905 37.0652 22.0278 37.124 21.675C37.1744 21.3643 37.502 20.6084 38.1066 19.3738L39.0137 17.5346V16.6024C39.0137 15.7289 38.9969 15.6365 38.7449 15.099C38.4678 14.5112 38.2578 14.2844 36.4018 12.5123C35.7215 11.8656 35.4023 11.4877 35.2428 11.1518C35.1084 10.8914 34.8313 9.92561 34.6045 8.96818C34.151 7.03654 33.9494 6.55783 33.3111 5.92795C32.5301 5.14689 31.8162 4.92014 29.7754 4.83615C28.3645 4.77736 27.5834 4.66818 27.1215 4.48342C26.9283 4.40783 26.0969 3.84514 25.2654 3.23205C24.3164 2.52658 23.5857 2.04787 23.2834 1.93029C22.6619 1.70354 21.6877 1.64474 21.0998 1.81271ZM24.2744 7.18772C28.1545 8.03596 31.2367 10.5723 32.7148 14.1584C33.983 17.2155 33.857 20.7512 32.3705 23.699C30.7412 26.9408 27.9025 29.1328 24.2912 29.9223C23.1154 30.1826 20.8814 30.1826 19.7225 29.9223C18.6307 29.6871 17.7656 29.3764 16.7998 28.8977C12.3738 26.6805 9.8207 21.7926 10.5514 16.9131C11.2988 11.8321 15.1453 7.95197 20.2432 7.10373C21.1586 6.95256 23.3926 6.99455 24.2744 7.18772Z" fill="#7C8F9D"/>
<path d="M20.3262 8.44778C14.7832 9.35481 11.0459 14.5115 11.8774 20.0796C12.7508 25.8325 18.235 29.7042 23.9543 28.6124C28.1787 27.8062 31.4877 24.3544 32.1344 20.0796C32.6887 16.4011 31.1602 12.647 28.2039 10.4214C27.3641 9.79153 26.961 9.54798 26.0203 9.14485C24.7942 8.61575 23.7696 8.39739 22.2998 8.3638C21.4684 8.3386 20.7965 8.3638 20.3262 8.44778ZM21.1325 15.2001C21.7707 15.4185 22.5854 15.6704 22.9297 15.7544C23.736 15.9476 23.9879 16.0736 24.1475 16.3843C24.4162 16.8966 24.2399 17.4257 23.7276 17.6525L23.3916 17.812L23.6436 17.8204C24.4918 17.8708 24.6094 17.8204 26.919 16.4767C27.8848 15.9056 28.859 15.3681 29.0858 15.2841C29.6317 15.0658 30.3119 15.0741 30.5975 15.3009C31.0594 15.662 31.0762 16.4599 30.6311 16.863C30.4211 17.0562 24.769 20.5415 24.1895 20.8355C23.5596 21.163 23.0809 21.1126 20.7041 20.4659C19.5535 20.1552 18.5793 19.8697 18.5457 19.8445C18.4617 19.7605 16.4545 16.1911 16.4797 16.1743C16.6561 16.0316 18.5541 14.9902 18.7893 14.9062C19.3856 14.6962 19.8811 14.755 21.1325 15.2001ZM14.8084 16.082C15.052 16.3255 17.7227 21.163 17.7227 21.3562C17.7227 21.5997 17.5883 21.7257 16.9584 22.0784C16.4629 22.364 16.1186 22.4144 15.9758 22.238C15.9338 22.1876 15.2451 20.9866 14.4473 19.5841C13.3387 17.6273 13.0196 16.9974 13.0532 16.8378C13.0867 16.7118 13.2967 16.5271 13.6746 16.3087C14.2625 15.956 14.6069 15.8888 14.8084 16.082Z" fill="#7C8F9D"/>
<path d="M9.60245 35.071C8.75421 36.8851 8.09073 38.4304 8.11593 38.506C8.14112 38.5732 8.20831 38.6487 8.2671 38.6655C8.34269 38.6991 12.1976 38.0777 12.7855 37.9349C12.8946 37.9097 13.2054 38.3884 14.1124 39.9505C15.2966 41.9997 15.4562 42.1929 15.6829 41.8989C15.7333 41.8402 16.2288 40.7904 16.7999 39.5642C17.3626 38.338 17.9001 37.2042 17.9757 37.0446L18.1269 36.7507H17.3122C15.9601 36.7423 14.7759 36.2552 13.8605 35.323C13.6169 35.0794 12.9618 34.1892 12.4075 33.3409C11.8448 32.4927 11.3241 31.7872 11.2569 31.7788C11.1646 31.762 10.6942 32.7027 9.60245 35.071Z" fill="#7C8F9D"/>
<path d="M32.4879 32.0229C32.3703 32.174 31.8832 32.9047 31.3961 33.6438C30.909 34.3828 30.3295 35.1639 30.1027 35.3822C29.1621 36.2809 28.0283 36.7428 26.7014 36.7512H25.8867L26.0379 37.0451C26.1135 37.2047 26.651 38.3385 27.2137 39.5647C27.7848 40.7908 28.2803 41.8406 28.3307 41.891C28.5574 42.185 28.7086 41.9918 29.9012 39.951C30.9426 38.1621 31.1105 37.9102 31.2701 37.9438C34.5791 38.5233 35.6625 38.6996 35.7465 38.666C35.8053 38.6492 35.8725 38.5736 35.8977 38.5065C35.9564 38.3553 32.9162 31.7625 32.7902 31.7541C32.7314 31.7541 32.5971 31.8801 32.4879 32.0229Z" fill="#7C8F9D"/>
</svg>
